<mxfile host="app.diagrams.net" modified="2022-11-21T12:36:47.907Z" agent="5.0 (Windows NT 10.0; Win64; x64) AppleWebKit/537.36 (KHTML, like Gecko) Chrome/107.0.0.0 Safari/537.36" etag="ibbosjVZ69SdXaJneNUB" version="20.5.3" type="github">
  <diagram id="C5RBs43oDa-KdzZeNtuy" name="Page-1">
    <mxGraphModel dx="2036" dy="1103" grid="1" gridSize="10" guides="1" tooltips="1" connect="1" arrows="1" fold="1" page="1" pageScale="1" pageWidth="827" pageHeight="1169" math="0" shadow="0">
      <root>
        <mxCell id="WIyWlLk6GJQsqaUBKTNV-0" />
        <mxCell id="WIyWlLk6GJQsqaUBKTNV-1" parent="WIyWlLk6GJQsqaUBKTNV-0" />
        <mxCell id="TCzUwj8TVnyyhomJJ35_-63" value="" style="edgeStyle=orthogonalEdgeStyle;rounded=0;orthogonalLoop=1;jettySize=auto;html=1;" edge="1" parent="WIyWlLk6GJQsqaUBKTNV-1" source="WIyWlLk6GJQsqaUBKTNV-3" target="TCzUwj8TVnyyhomJJ35_-1">
          <mxGeometry relative="1" as="geometry" />
        </mxCell>
        <mxCell id="WIyWlLk6GJQsqaUBKTNV-3" value="채팅시작&lt;br style=&quot;font-size: 15px;&quot;&gt;(채팅시작시, 공지사항 공지)" style="rounded=1;whiteSpace=wrap;html=1;fontSize=15;glass=0;strokeWidth=1;shadow=0;" parent="WIyWlLk6GJQsqaUBKTNV-1" vertex="1">
          <mxGeometry x="274.38" y="120" width="250" height="90" as="geometry" />
        </mxCell>
        <mxCell id="TCzUwj8TVnyyhomJJ35_-27" value="" style="edgeStyle=orthogonalEdgeStyle;rounded=0;orthogonalLoop=1;jettySize=auto;html=1;" edge="1" parent="WIyWlLk6GJQsqaUBKTNV-1" source="TCzUwj8TVnyyhomJJ35_-1" target="TCzUwj8TVnyyhomJJ35_-6">
          <mxGeometry relative="1" as="geometry" />
        </mxCell>
        <mxCell id="TCzUwj8TVnyyhomJJ35_-1" value="어디가 아프신가요?&lt;br style=&quot;font-size: 15px;&quot;&gt;(매치되어있는 번호와 통증 고르기 1-16)" style="rounded=0;whiteSpace=wrap;html=1;fontSize=15;" vertex="1" parent="WIyWlLk6GJQsqaUBKTNV-1">
          <mxGeometry x="274.38" y="230" width="245" height="60" as="geometry" />
        </mxCell>
        <mxCell id="TCzUwj8TVnyyhomJJ35_-6" value="통증 번호 선택" style="shape=card;whiteSpace=wrap;html=1;fontSize=15;" vertex="1" parent="WIyWlLk6GJQsqaUBKTNV-1">
          <mxGeometry x="335" y="330" width="120" height="40" as="geometry" />
        </mxCell>
        <mxCell id="TCzUwj8TVnyyhomJJ35_-7" style="edgeStyle=orthogonalEdgeStyle;rounded=0;orthogonalLoop=1;jettySize=auto;html=1;exitX=0.5;exitY=1;exitDx=0;exitDy=0;exitPerimeter=0;" edge="1" parent="WIyWlLk6GJQsqaUBKTNV-1" source="TCzUwj8TVnyyhomJJ35_-6" target="TCzUwj8TVnyyhomJJ35_-6">
          <mxGeometry relative="1" as="geometry" />
        </mxCell>
        <mxCell id="TCzUwj8TVnyyhomJJ35_-26" value="" style="edgeStyle=orthogonalEdgeStyle;rounded=0;orthogonalLoop=1;jettySize=auto;html=1;" edge="1" parent="WIyWlLk6GJQsqaUBKTNV-1" source="TCzUwj8TVnyyhomJJ35_-11" target="TCzUwj8TVnyyhomJJ35_-17">
          <mxGeometry relative="1" as="geometry" />
        </mxCell>
        <mxCell id="TCzUwj8TVnyyhomJJ35_-11" value="증상을 말해주세요" style="rounded=0;whiteSpace=wrap;html=1;fontSize=15;" vertex="1" parent="WIyWlLk6GJQsqaUBKTNV-1">
          <mxGeometry x="335" y="420" width="120" height="50" as="geometry" />
        </mxCell>
        <mxCell id="TCzUwj8TVnyyhomJJ35_-14" value="" style="endArrow=classic;html=1;rounded=0;exitX=0.5;exitY=1;exitDx=0;exitDy=0;exitPerimeter=0;" edge="1" parent="WIyWlLk6GJQsqaUBKTNV-1" source="TCzUwj8TVnyyhomJJ35_-6" target="TCzUwj8TVnyyhomJJ35_-11">
          <mxGeometry width="50" height="50" relative="1" as="geometry">
            <mxPoint x="390" y="350" as="sourcePoint" />
            <mxPoint x="440" y="300" as="targetPoint" />
          </mxGeometry>
        </mxCell>
        <mxCell id="TCzUwj8TVnyyhomJJ35_-28" value="" style="edgeStyle=orthogonalEdgeStyle;rounded=0;orthogonalLoop=1;jettySize=auto;html=1;" edge="1" parent="WIyWlLk6GJQsqaUBKTNV-1" source="TCzUwj8TVnyyhomJJ35_-17" target="TCzUwj8TVnyyhomJJ35_-20">
          <mxGeometry relative="1" as="geometry" />
        </mxCell>
        <mxCell id="TCzUwj8TVnyyhomJJ35_-17" value="증상 입력" style="shape=card;whiteSpace=wrap;html=1;fontSize=15;" vertex="1" parent="WIyWlLk6GJQsqaUBKTNV-1">
          <mxGeometry x="335" y="520" width="120" height="40" as="geometry" />
        </mxCell>
        <mxCell id="TCzUwj8TVnyyhomJJ35_-23" style="edgeStyle=orthogonalEdgeStyle;rounded=0;orthogonalLoop=1;jettySize=auto;html=1;entryX=1;entryY=0.5;entryDx=0;entryDy=0;" edge="1" parent="WIyWlLk6GJQsqaUBKTNV-1" source="TCzUwj8TVnyyhomJJ35_-20" target="TCzUwj8TVnyyhomJJ35_-11">
          <mxGeometry relative="1" as="geometry">
            <mxPoint x="599.8" y="472.96268656716416" as="targetPoint" />
            <Array as="points">
              <mxPoint x="600" y="623" />
              <mxPoint x="600" y="425" />
            </Array>
          </mxGeometry>
        </mxCell>
        <mxCell id="TCzUwj8TVnyyhomJJ35_-24" value="no" style="edgeLabel;html=1;align=center;verticalAlign=middle;resizable=0;points=[];" vertex="1" connectable="0" parent="TCzUwj8TVnyyhomJJ35_-23">
          <mxGeometry x="0.3667" y="-3" relative="1" as="geometry">
            <mxPoint as="offset" />
          </mxGeometry>
        </mxCell>
        <mxCell id="TCzUwj8TVnyyhomJJ35_-30" value="yes" style="edgeStyle=orthogonalEdgeStyle;rounded=0;orthogonalLoop=1;jettySize=auto;html=1;" edge="1" parent="WIyWlLk6GJQsqaUBKTNV-1" source="TCzUwj8TVnyyhomJJ35_-20">
          <mxGeometry relative="1" as="geometry">
            <mxPoint x="395" y="770" as="targetPoint" />
          </mxGeometry>
        </mxCell>
        <mxCell id="TCzUwj8TVnyyhomJJ35_-20" value="규칙 1&lt;br style=&quot;font-size: 15px;&quot;&gt;챗봇이 약을 &lt;br style=&quot;font-size: 15px;&quot;&gt;추천 할 수 있게 &lt;br style=&quot;font-size: 15px;&quot;&gt;잘 입력 했는지?" style="rhombus;whiteSpace=wrap;html=1;fontSize=15;" vertex="1" parent="WIyWlLk6GJQsqaUBKTNV-1">
          <mxGeometry x="311.25" y="600" width="167.5" height="125" as="geometry" />
        </mxCell>
        <mxCell id="TCzUwj8TVnyyhomJJ35_-38" value="yes" style="edgeStyle=orthogonalEdgeStyle;rounded=0;orthogonalLoop=1;jettySize=auto;html=1;" edge="1" parent="WIyWlLk6GJQsqaUBKTNV-1" source="TCzUwj8TVnyyhomJJ35_-36" target="TCzUwj8TVnyyhomJJ35_-37">
          <mxGeometry relative="1" as="geometry" />
        </mxCell>
        <mxCell id="TCzUwj8TVnyyhomJJ35_-43" value="no" style="edgeStyle=orthogonalEdgeStyle;rounded=0;orthogonalLoop=1;jettySize=auto;html=1;" edge="1" parent="WIyWlLk6GJQsqaUBKTNV-1" source="TCzUwj8TVnyyhomJJ35_-36" target="TCzUwj8TVnyyhomJJ35_-42">
          <mxGeometry relative="1" as="geometry" />
        </mxCell>
        <mxCell id="TCzUwj8TVnyyhomJJ35_-36" value="규칙2&lt;br style=&quot;font-size: 15px;&quot;&gt;앓고 지병이 있나요?&lt;br style=&quot;font-size: 15px;&quot;&gt;(ex 천식, 녹내장 등)" style="strokeWidth=2;html=1;shape=mxgraph.flowchart.decision;whiteSpace=wrap;fontSize=15;" vertex="1" parent="WIyWlLk6GJQsqaUBKTNV-1">
          <mxGeometry x="320" y="770" width="150" height="130" as="geometry" />
        </mxCell>
        <mxCell id="TCzUwj8TVnyyhomJJ35_-45" style="edgeStyle=orthogonalEdgeStyle;rounded=0;orthogonalLoop=1;jettySize=auto;html=1;exitX=0.75;exitY=1;exitDx=0;exitDy=0;" edge="1" parent="WIyWlLk6GJQsqaUBKTNV-1" source="TCzUwj8TVnyyhomJJ35_-37">
          <mxGeometry relative="1" as="geometry">
            <mxPoint x="195.28571428571468" y="960" as="targetPoint" />
          </mxGeometry>
        </mxCell>
        <mxCell id="TCzUwj8TVnyyhomJJ35_-49" value="" style="edgeStyle=orthogonalEdgeStyle;rounded=0;orthogonalLoop=1;jettySize=auto;html=1;" edge="1" parent="WIyWlLk6GJQsqaUBKTNV-1" source="TCzUwj8TVnyyhomJJ35_-37" target="TCzUwj8TVnyyhomJJ35_-46">
          <mxGeometry relative="1" as="geometry" />
        </mxCell>
        <mxCell id="TCzUwj8TVnyyhomJJ35_-37" value="지병 입력" style="html=1;strokeWidth=2;shape=manualInput;whiteSpace=wrap;rounded=1;size=26;arcSize=11;fontSize=15;" vertex="1" parent="WIyWlLk6GJQsqaUBKTNV-1">
          <mxGeometry x="70.31" y="910" width="140.62" height="60" as="geometry" />
        </mxCell>
        <mxCell id="TCzUwj8TVnyyhomJJ35_-54" value="" style="edgeStyle=orthogonalEdgeStyle;rounded=0;orthogonalLoop=1;jettySize=auto;html=1;" edge="1" parent="WIyWlLk6GJQsqaUBKTNV-1" source="TCzUwj8TVnyyhomJJ35_-42" target="TCzUwj8TVnyyhomJJ35_-51">
          <mxGeometry relative="1" as="geometry" />
        </mxCell>
        <mxCell id="TCzUwj8TVnyyhomJJ35_-42" value="약 정보 출력" style="shape=parallelogram;html=1;strokeWidth=2;perimeter=parallelogramPerimeter;whiteSpace=wrap;rounded=1;arcSize=12;size=0.23;fontSize=15;" vertex="1" parent="WIyWlLk6GJQsqaUBKTNV-1">
          <mxGeometry x="320" y="930" width="150" height="60" as="geometry" />
        </mxCell>
        <mxCell id="TCzUwj8TVnyyhomJJ35_-61" value="" style="edgeStyle=orthogonalEdgeStyle;rounded=0;orthogonalLoop=1;jettySize=auto;html=1;" edge="1" parent="WIyWlLk6GJQsqaUBKTNV-1" source="TCzUwj8TVnyyhomJJ35_-46" target="TCzUwj8TVnyyhomJJ35_-51">
          <mxGeometry relative="1" as="geometry" />
        </mxCell>
        <mxCell id="TCzUwj8TVnyyhomJJ35_-46" value="입력한 지병이 들어간 데이터들 삭제" style="rounded=1;whiteSpace=wrap;html=1;absoluteArcSize=1;arcSize=14;strokeWidth=2;fontSize=15;" vertex="1" parent="WIyWlLk6GJQsqaUBKTNV-1">
          <mxGeometry x="60.620000000000005" y="1070" width="160" height="70" as="geometry" />
        </mxCell>
        <mxCell id="TCzUwj8TVnyyhomJJ35_-48" style="edgeStyle=orthogonalEdgeStyle;rounded=0;orthogonalLoop=1;jettySize=auto;html=1;exitX=0.5;exitY=1;exitDx=0;exitDy=0;" edge="1" parent="WIyWlLk6GJQsqaUBKTNV-1" source="TCzUwj8TVnyyhomJJ35_-46" target="TCzUwj8TVnyyhomJJ35_-46">
          <mxGeometry relative="1" as="geometry" />
        </mxCell>
        <mxCell id="TCzUwj8TVnyyhomJJ35_-51" value="종료" style="strokeWidth=2;html=1;shape=mxgraph.flowchart.terminator;whiteSpace=wrap;fontSize=15;" vertex="1" parent="WIyWlLk6GJQsqaUBKTNV-1">
          <mxGeometry x="345" y="1080" width="100" height="60" as="geometry" />
        </mxCell>
      </root>
    </mxGraphModel>
  </diagram>
</mxfile>
